<svg id="Layer_1" data-name="Layer 1" xmlns="http://www.w3.org/2000/svg" xmlns:xlink="http://www.w3.org/1999/xlink" viewBox="0 0 432.92 500"><defs><style>.cls-1,.cls-23{fill:none;}.cls-2{fill:#fff;}.cls-3{fill:#bed7e7;}.cls-4{fill:#6badd6;}.cls-5{fill:#3182be;}.cls-6{fill:#08529c;}.cls-7{fill:#140f0c;stroke:#140f0c;stroke-width:0.5px;}.cls-23,.cls-7{stroke-miterlimit:10;}.cls-8{font-size:87px;fill:#231f20;font-family:OpenSans-Light, Open Sans;font-weight:300;}.cls-9{isolation:isolate;}.cls-10{clip-path:url(#clip-path);}.cls-11{fill:#696a6a;}.cls-12{fill:#666767;}.cls-13{fill:#646565;}.cls-14{fill:#616262;}.cls-15{clip-path:url(#clip-path-2);}.cls-16{fill:#5a5b5b;}.cls-17{fill:#5c5e5e;}.cls-18{fill:#5f6060;}.cls-19{fill:#6b6c6c;}.cls-20{fill:#6d6e6e;}.cls-21{fill:#707171;}.cls-22{fill:#848484;}.cls-23{stroke:#231f20;stroke-width:7px;}</style><clipPath id="clip-path"><path class="cls-1" d="M-20.88,271.07l302.27,48.67a7.56,7.56,0,0,0-3.78.38L-24.67,271.45A7.71,7.71,0,0,1-20.88,271.07Z"/></clipPath><clipPath id="clip-path-2"><path class="cls-1" d="M275.11,358.76-27.17,310.09c-4.94-.8-8.69-6.78-9-15.27-.35-10.57,4.79-21,11.47-23.37l302.28,48.67c-6.69,2.34-11.83,12.8-11.47,23.37C266.42,352,270.17,358,275.11,358.76Z"/></clipPath></defs><polygon class="cls-2" points="430.39 126.25 313.41 58.58 216.44 2.5 2.49 126.25 2.49 216.67 433.47 216.67 430.39 126.25"/><rect class="cls-3" x="-0.51" y="214.18" width="432.92" height="145.64"/><polygon class="cls-4" points="0.55 248.07 433.47 248.07 430.39 373.75 2.49 373.75 0.55 248.07"/><polygon class="cls-5" points="0.55 286.77 433.47 286.77 430.39 373.75 350.75 419.81 164.86 467.67 76.31 416.45 2.49 373.75 0.55 286.77"/><polygon class="cls-6" points="0.55 326.5 433.47 326.5 430.39 373.75 338.53 426.88 216.44 497.5 91.47 425.21 2.49 373.75 0.55 326.5"/><path class="cls-7" d="M-29.44,287H45l83.47,23.91,98.06,33.91a46,46,0,0,0,5.63,1.56l198.28,27.37-21,12.15L286.75,456.3l-70.31,41.2L2.49,373.75Z"/><text class="cls-8" transform="translate(61.17 189.64)">bathtub</text><g class="cls-9"><g class="cls-9"><g class="cls-10"><g class="cls-9"><path class="cls-11" d="M277.61,320.12-24.67,271.45a7.6,7.6,0,0,1,1.08-.3l302.27,48.67a7.48,7.48,0,0,0-1.07.3"/><path class="cls-12" d="M278.68,319.82-23.59,271.15a6.9,6.9,0,0,1,1.26-.16L280,319.65a8.05,8.05,0,0,0-1.27.17"/><path class="cls-13" d="M280,319.65-22.33,271a7.15,7.15,0,0,1,1.23.05l302.28,48.67a7.14,7.14,0,0,0-1.23-.06"/><path class="cls-14" d="M281.18,319.71-21.1,271l.22,0,302.27,48.67-.21,0"/></g></g></g><g class="cls-9"><g class="cls-15"><g class="cls-9"><path class="cls-16" d="M275.11,358.76-27.17,310.09c-4-.65-7.2-4.67-8.44-10.66L266.67,348.1c1.24,6,4.45,10,8.44,10.66"/><path class="cls-17" d="M266.67,348.1-35.61,299.43c-.17-.83-.3-1.7-.4-2.6L266.27,345.5a25.72,25.72,0,0,0,.4,2.6"/><path class="cls-18" d="M266.27,345.5-36,296.83c-.06-.66-.11-1.33-.13-2,0-.09,0-.19,0-.28l302.28,48.67a2.72,2.72,0,0,0,0,.28c0,.68.06,1.35.13,2"/><path class="cls-14" d="M266.13,343.21-36.15,294.54c0-.7,0-1.4,0-2.1l302.28,48.67c0,.7,0,1.4,0,2.1"/><path class="cls-13" d="M266.15,341.11-36.13,292.44c0-.68.08-1.36.15-2L266.3,339.08c-.07.67-.12,1.35-.15,2"/><path class="cls-12" d="M266.3,339.08-36,290.41c.08-.69.17-1.37.28-2L266.58,337c-.11.67-.21,1.35-.28,2"/><path class="cls-11" d="M266.58,337-35.7,288.37c.13-.72.27-1.43.44-2.13L267,334.91c-.17.7-.31,1.41-.44,2.13"/><path class="cls-19" d="M267,334.91-35.26,286.24c.19-.79.41-1.57.66-2.33l302.28,48.67c-.25.76-.47,1.54-.66,2.33"/><path class="cls-20" d="M267.68,332.58-34.6,283.91A29,29,0,0,1-33.48,281l302.27,48.67a28.92,28.92,0,0,0-1.11,2.92"/><path class="cls-21" d="M268.79,329.66-33.48,281a21,21,0,0,1,5.14-7.33l302.27,48.67a21.16,21.16,0,0,0-5.14,7.33"/><path class="cls-20" d="M273.93,322.33-28.34,273.66a12,12,0,0,1,1.88-1.37L275.81,321a13,13,0,0,0-1.88,1.37"/><path class="cls-19" d="M275.81,321-26.46,272.29a10.43,10.43,0,0,1,1.5-.74l302.28,48.67a10.53,10.53,0,0,0-1.51.74"/><path class="cls-11" d="M277.32,320.22-25,271.55l.29-.1,302.28,48.67-.29.1"/></g></g></g><ellipse class="cls-22" cx="278.25" cy="339.25" rx="19.75" ry="11.87" transform="translate(-100.91 560.03) rotate(-80.85)"/></g><polygon class="cls-23" points="2.49 126.25 2.49 373.75 216.44 497.5 430.39 373.75 430.39 126.25 216.44 2.5 2.49 126.25"/></svg>