<svg id="Layer_1" data-name="Layer 1" xmlns="http://www.w3.org/2000/svg" xmlns:xlink="http://www.w3.org/1999/xlink" viewBox="0 0 432.92 500"><defs><style>.cls-1,.cls-23{fill:none;}.cls-2{fill:#fff;}.cls-3{fill:#bed7e7;}.cls-4{fill:#6badd6;}.cls-5{fill:#3182be;}.cls-6{fill:#08529c;}.cls-7{fill:#140f0c;}.cls-8{font-size:87px;fill:#231f20;font-family:OpenSans-Light, Open Sans;font-weight:300;}.cls-9{isolation:isolate;}.cls-10{clip-path:url(#clip-path);}.cls-11{fill:#696a6a;}.cls-12{fill:#666767;}.cls-13{fill:#646565;}.cls-14{fill:#616262;}.cls-15{clip-path:url(#clip-path-2);}.cls-16{fill:#5a5b5b;}.cls-17{fill:#5c5e5e;}.cls-18{fill:#5f6060;}.cls-19{fill:#6b6c6c;}.cls-20{fill:#6d6e6e;}.cls-21{fill:#707171;}.cls-22{fill:#848484;}.cls-23{stroke:#231f20;stroke-miterlimit:10;stroke-width:7px;}</style><clipPath id="clip-path"><path class="cls-1" d="M-33.71,266.31,268.56,315a7.56,7.56,0,0,0-3.78.38L-37.5,266.69A7.59,7.59,0,0,1-33.71,266.31Z"/></clipPath><clipPath id="clip-path-2"><path class="cls-1" d="M262.27,354-40,305.32c-4.94-.8-8.69-6.78-9-15.27-.35-10.57,4.78-21,11.47-23.36l302.28,48.67c-6.69,2.34-11.83,12.79-11.47,23.35C253.59,347.21,257.34,353.19,262.27,354Z"/></clipPath></defs><polygon class="cls-2" points="430.39 126.25 313.41 58.58 216.44 2.5 2.49 126.25 2.49 216.67 433.47 216.67 430.39 126.25"/><rect class="cls-3" x="-0.51" y="214.18" width="432.92" height="145.64"/><polygon class="cls-4" points="0.55 248.07 433.47 248.07 430.39 373.75 2.49 373.75 0.55 248.07"/><polygon class="cls-5" points="0.55 286.77 433.47 286.77 430.39 373.75 350.75 419.81 164.86 467.67 76.31 416.45 2.49 373.75 0.55 286.77"/><polygon class="cls-6" points="0.55 326.5 433.47 326.5 430.39 373.75 338.53 426.88 216.44 497.5 91.47 425.21 2.49 373.75 0.55 326.5"/><polygon class="cls-7" points="-37.9 290.49 430.39 373.75 409.39 385.9 286.75 456.3 216.44 497.5 2.49 373.75 -37.9 290.49"/><text class="cls-8" transform="translate(103.63 189.64)">floodr</text><g class="cls-9"><g class="cls-9"><g class="cls-10"><g class="cls-9"><path class="cls-11" d="M264.78,315.36-37.5,266.69a9.15,9.15,0,0,1,1.07-.31l302.28,48.67a9.15,9.15,0,0,0-1.07.31"/><path class="cls-12" d="M265.85,315.05-36.43,266.38a8,8,0,0,1,1.27-.16l302.28,48.67a8,8,0,0,0-1.27.16"/><path class="cls-13" d="M267.12,314.89-35.16,266.22a7.14,7.14,0,0,1,1.23.06L268.35,315a7.19,7.19,0,0,0-1.23-.06"/><path class="cls-14" d="M268.35,315-33.93,266.28l.22,0L268.56,315l-.21,0"/></g></g></g><g class="cls-9"><g class="cls-15"><g class="cls-9"><path class="cls-16" d="M262.27,354-40,305.32c-4-.64-7.2-4.66-8.44-10.66l302.28,48.67c1.24,6,4.45,10,8.43,10.66"/><path class="cls-17" d="M253.84,343.33-48.44,294.66c-.17-.83-.3-1.7-.4-2.6l302.28,48.67a25.72,25.72,0,0,0,.4,2.6"/><path class="cls-18" d="M253.44,340.73-48.84,292.06c-.06-.66-.11-1.33-.13-2,0-.1,0-.19,0-.28L253.3,338.44a2.44,2.44,0,0,0,0,.27c0,.69.06,1.36.13,2"/><path class="cls-14" d="M253.3,338.44-49,289.77c0-.7,0-1.41,0-2.11l302.28,48.67c0,.7,0,1.41,0,2.11"/><path class="cls-13" d="M253.32,336.33-49,287.66c0-.68.08-1.35.15-2L253.47,334.3c-.07.67-.12,1.35-.15,2"/><path class="cls-12" d="M253.47,334.3-48.81,285.63c.08-.68.17-1.36.28-2l302.28,48.67c-.11.67-.21,1.35-.28,2"/><path class="cls-11" d="M253.75,332.27-48.53,283.6c.13-.72.27-1.43.44-2.13l302.28,48.67c-.17.7-.31,1.41-.44,2.13"/><path class="cls-19" d="M254.19,330.14-48.09,281.47c.19-.79.41-1.57.66-2.33l302.28,48.67c-.25.76-.47,1.54-.66,2.33"/><path class="cls-20" d="M254.85,327.81-47.43,279.14c.33-1,.7-2,1.11-2.92L256,324.89a28.92,28.92,0,0,0-1.11,2.92"/><path class="cls-21" d="M256,324.89-46.32,276.22a21.12,21.12,0,0,1,5.14-7.32L261.1,317.57a21,21,0,0,0-5.14,7.32"/><path class="cls-20" d="M261.1,317.57-41.18,268.9a12,12,0,0,1,1.88-1.37L263,316.2a12,12,0,0,0-1.88,1.37"/><path class="cls-19" d="M263,316.2-39.3,267.53a10,10,0,0,1,1.51-.74l302.27,48.67a10.43,10.43,0,0,0-1.5.74"/><path class="cls-11" d="M264.48,315.46-37.79,266.79l.29-.1,302.28,48.67-.3.1"/></g></g></g><path class="cls-22" d="M264.78,315.36c6.69-2.35,12.4,4.32,12.75,14.88s-4.78,21-11.48,23.37-12.39-4.33-12.74-14.9S258.09,317.7,264.78,315.36Z"/></g><polygon class="cls-23" points="2.49 126.25 2.49 373.75 216.44 497.5 430.39 373.75 430.39 126.25 216.44 2.5 2.49 126.25"/></svg>